<svg xmlns="http://www.w3.org/2000/svg" viewBox="0 0 400 400" width="400" height="400">
  <defs>
    <!-- Top arc: starts from left, goes over the top, centered at 200,200 r=158 -->
    <path id="topCircle" d="M 62,200 a 138,138 0 1,1 276,0" />
    <!-- Bottom arc: goes under, centered at 200,200 r=152 -->
    <path id="bottomCircle" d="M 55,220 a 152,152 0 0,0 290,0" />
    <clipPath id="circleClip">
      <circle cx="200" cy="200" r="168"/>
    </clipPath>
  </defs>

  <!-- Outer ring -->
  <circle cx="200" cy="200" r="192" fill="#c1e8ff"/>

  <!-- Navy ring -->
  <circle cx="200" cy="200" r="182" fill="#1a1a4e"/>

  <!-- White ring -->
  <circle cx="200" cy="200" r="172" fill="#ffffff"/>

  <!-- Inner background circle -->
  <circle cx="200" cy="200" r="168" fill="#1a1a4e"/>

  <!-- Curved top text: SHALOM MODEL COLLEGE -->
  <text font-family="Georgia, serif" font-size="17" font-weight="bold" fill="#F5C000" letter-spacing="3">
    <textPath href="#topCircle" startOffset="50%" text-anchor="middle">SHALOM MODEL COLLEGE</textPath>
  </text>

  <!-- Curved bottom text -->
  <text font-family="Georgia, serif" font-size="10.5" fill="#F5C000" letter-spacing="1.5">
    <textPath href="#bottomCircle" startOffset="50%" text-anchor="middle">PRE-NURSERY · NURSERY · PRIMARY · COLLEGE</textPath>
  </text>

  <!-- Graduation Cap — centred over shield top edge (y=115) -->
  <g transform="translate(200, 108)">
    <!-- Vertical stem from cap board down to shield -->
    <rect x="-3" y="4" width="6" height="14" rx="1" fill="#c1e8ff"/>
    <!-- Cap board (mortarboard top) -->
    <rect x="-22" y="-6" width="44" height="11" rx="3" fill="#c1e8ff"/>
    <!-- Diamond / top piece -->
    <polygon points="0,-18 8,-6 0,-2 -8,-6" fill="#c1e8ff"/>
    <!-- Brim (wide flat diamond) -->
    <polygon points="-44,4 0,-12 44,4 0,20" fill="#c1e8ff"/>
    <!-- Tassel cord -->
    <line x1="44" y1="4" x2="44" y2="26" stroke="#c1e8ff" stroke-width="2.5"/>
    <!-- Tassel tip -->
    <rect x="40" y="26" width="8" height="10" rx="2" fill="#c1e8ff"/>
  </g>

  <!-- Laurel Left -->
  <g fill="#F5C000" opacity="0.85">
    <ellipse cx="108" cy="195" rx="13" ry="6" transform="rotate(-30,108,195)"/>
    <ellipse cx="100" cy="178" rx="13" ry="6" transform="rotate(-45,100,178)"/>
    <ellipse cx="98"  cy="160" rx="12" ry="5.5" transform="rotate(-55,98,160)"/>
    <ellipse cx="100" cy="143" rx="11" ry="5" transform="rotate(-60,100,143)"/>
    <ellipse cx="105" cy="128" rx="10" ry="5" transform="rotate(-65,105,128)"/>
    <path d="M112,205 Q95,170 108,120" stroke="#F5C000" stroke-width="2" fill="none" opacity="0.6"/>
  </g>

  <!-- Laurel Right -->
  <g fill="#F5C000" opacity="0.85">
    <ellipse cx="292" cy="195" rx="13" ry="6" transform="rotate(30,292,195)"/>
    <ellipse cx="300" cy="178" rx="13" ry="6" transform="rotate(45,300,178)"/>
    <ellipse cx="302" cy="160" rx="12" ry="5.5" transform="rotate(55,302,160)"/>
    <ellipse cx="300" cy="143" rx="11" ry="5" transform="rotate(60,300,143)"/>
    <ellipse cx="295" cy="128" rx="10" ry="5" transform="rotate(65,295,128)"/>
    <path d="M288,205 Q305,170 292,120" stroke="#F5C000" stroke-width="2" fill="none" opacity="0.6"/>
  </g>

  <!-- Shield gold border -->
  <path d="M155,115 L245,115 L245,235 Q200,265 155,235 Z" fill="#C8A200"/>

  <!-- Shield top navy -->
  <path d="M160,120 L240,120 L240,178 L160,178 Z" fill="#1a1a4e"/>

  <!-- Shield bottom left yellow -->
  <path d="M160,178 L200,178 L200,232 Q180,246 160,232 Z" fill="#F5C000"/>

  <!-- Shield bottom right red -->
  <path d="M200,178 L240,178 L240,232 Q220,246 200,232 Z" fill="#CC2200"/>

  <!-- Dividers -->
  <line x1="160" y1="178" x2="240" y2="178" stroke="#C8A200" stroke-width="2"/>
  <line x1="200" y1="120" x2="200" y2="248" stroke="#C8A200" stroke-width="2"/>

  <!-- SHALOM -->
  <text x="200" y="145" text-anchor="middle" dominant-baseline="middle" font-family="Georgia, serif" font-size="19" font-weight="bold" fill="#F5C000" letter-spacing="1">SHALOM</text>
  <!-- MODEL COLLEGE -->
  <text x="200" y="161" text-anchor="middle" dominant-baseline="middle" font-family="Georgia, serif" font-size="11" fill="#ffffff">MODEL</text>
  <text x="200" y="175" text-anchor="middle" dominant-baseline="middle" font-family="Georgia, serif" font-size="11" fill="#ffffff">COLLEGE</text>

  <!-- Open Book (bottom left) -->
  <g transform="translate(172,207)">
    <path d="M-15,0 Q-8,-11 0,-7 L0,13 Q-8,9 -15,11 Z" fill="#2a8a2a"/>
    <path d="M15,0 Q8,-11 0,-7 L0,13 Q8,9 15,11 Z" fill="#2a8a2a"/>
    <rect x="-1.5" y="-7" width="3" height="20" fill="#1a5a1a"/>
    <line x1="-12" y1="1" x2="-2" y2="-1" stroke="#ffffff" stroke-width="0.9" opacity="0.8"/>
    <line x1="-12" y1="5" x2="-2" y2="4" stroke="#ffffff" stroke-width="0.9" opacity="0.8"/>
    <line x1="-12" y1="9" x2="-2" y2="8" stroke="#ffffff" stroke-width="0.9" opacity="0.8"/>
  </g>

  <!-- Key (bottom right) -->
  <g transform="translate(226,210)">
    <circle cx="0" cy="-7" r="8" fill="none" stroke="#ffffff" stroke-width="3"/>
    <rect x="-1.2" y="1" width="2.4" height="16" fill="#ffffff"/>
    <rect x="1.2" y="6" width="5" height="3" fill="#ffffff"/>
    <rect x="1.2" y="12" width="4" height="2.5" fill="#ffffff"/>
  </g>

  <!-- Red ribbon -->
  <path d="M128,252 Q142,238 158,246 Q200,264 242,246 Q258,238 272,252 Q258,270 242,260 Q200,278 158,260 Q142,270 128,252 Z" fill="#CC2200"/>
  <circle cx="131" cy="252" r="8" fill="#C8A200"/>
  <circle cx="269" cy="252" r="8" fill="#C8A200"/>

  <!-- Ribbon text -->
  <text x="200" y="259" text-anchor="middle" font-family="Georgia, serif" font-size="8" fill="#ffffff" letter-spacing="1.2">ENABLE · MOTIVATE · EQUIP FOR LIFE</text>
</svg>
